<svg width="54" height="54" viewBox="0 0 54 54" fill="none" xmlns="http://www.w3.org/2000/svg">
<path d="M23.625 45C23.625 45.8951 23.9806 46.7535 24.6135 47.3865C25.2464 48.0194 26.1049 48.375 27 48.375C27.8951 48.375 28.7536 48.0194 29.3865 47.3865C30.0194 46.7535 30.375 45.8951 30.375 45V30.375H45C45.8951 30.375 46.7535 30.0194 47.3865 29.3865C48.0194 28.7536 48.375 27.8951 48.375 27C48.375 26.1049 48.0194 25.2464 47.3865 24.6135C46.7535 23.9806 45.8951 23.625 45 23.625H30.375V9C30.375 8.10489 30.0194 7.24645 29.3865 6.61351C28.7536 5.98058 27.8951 5.625 27 5.625C26.1049 5.625 25.2464 5.98058 24.6135 6.61351C23.9806 7.24645 23.625 8.10489 23.625 9V23.625H9C8.10489 23.625 7.24645 23.9806 6.61351 24.6135C5.98058 25.2464 5.625 26.1049 5.625 27C5.625 27.8951 5.98058 28.7536 6.61351 29.3865C7.24645 30.0194 8.10489 30.375 9 30.375H23.625V45Z" fill="black"/>
</svg>
