<svg width="26" height="27" viewBox="0 0 26 27" fill="none" xmlns="http://www.w3.org/2000/svg">
<path d="M11.4743 20.6441C13.1389 20.6457 14.7666 20.1541 16.1519 19.2314C17.5373 18.3086 18.6182 16.9961 19.2581 15.4595C19.8977 13.9227 20.0664 12.2305 19.7429 10.5977C19.4193 8.96487 18.618 7.46495 17.4406 6.28822C16.264 5.11103 14.7648 4.30907 13.1325 3.9837C11.5002 3.65833 9.80806 3.82416 8.26998 4.46022C6.7319 5.09628 5.4169 6.17403 4.49117 7.55725C3.56545 8.94047 3.07055 10.5671 3.06903 12.2315C3.06903 14.4612 3.95424 16.5989 5.53004 18.1758C7.10634 19.7528 9.2436 20.6404 11.4733 20.6441M17.4438 18.1988L22.4265 23.1784" stroke="#757575" stroke-width="1.5" stroke-linecap="round" stroke-linejoin="round"/>
</svg>
